<svg width="42" height="45" viewBox="0 0 42 45" fill="none" xmlns="http://www.w3.org/2000/svg">
<path d="M0 19.25C0 9.03273 8.28273 0.75 18.5 0.75C28.7173 0.75 37 9.03273 37 19.25C37 29.4673 28.7173 37.75 18.5 37.75C8.28273 37.75 0 29.4673 0 19.25Z" fill="#FFEACC"/>
<path d="M39.6875 37.6014H37.0859V21.1249C37.0859 20.5882 36.8728 20.0736 36.4933 19.6941C36.1138 19.3146 35.5991 19.1014 35.0625 19.1014H25.5234V11.8749C25.5233 11.5086 25.4237 11.1493 25.2354 10.8352C25.0471 10.5211 24.777 10.264 24.4541 10.0913C24.1311 9.91866 23.7673 9.83687 23.4015 9.85469C23.0357 9.87251 22.6816 9.98928 22.377 10.1925L10.8145 17.9004C10.5374 18.0853 10.3103 18.3357 10.1532 18.6294C9.9961 18.9231 9.91396 19.2511 9.91406 19.5842V37.6014H7.3125C7.08251 37.6014 6.86194 37.6928 6.69931 37.8554C6.53668 38.0181 6.44531 38.2386 6.44531 38.4686C6.44531 38.6986 6.53668 38.9192 6.69931 39.0818C6.86194 39.2445 7.08251 39.3358 7.3125 39.3358H39.6875C39.9175 39.3358 40.1381 39.2445 40.3007 39.0818C40.4633 38.9192 40.5547 38.6986 40.5547 38.4686C40.5547 38.2386 40.4633 38.0181 40.3007 37.8554C40.1381 37.6928 39.9175 37.6014 39.6875 37.6014ZM35.0625 20.8358C35.1392 20.8358 35.2127 20.8663 35.2669 20.9205C35.3211 20.9747 35.3516 21.0482 35.3516 21.1249V37.6014H25.5234V20.8358H35.0625ZM11.6484 19.5842C11.6485 19.5367 11.6603 19.49 11.6827 19.4481C11.7052 19.4063 11.7376 19.3706 11.7771 19.3443L23.3396 11.635C23.3831 11.6059 23.4336 11.5893 23.4858 11.5867C23.5381 11.5841 23.59 11.5958 23.6361 11.6204C23.6822 11.645 23.7208 11.6817 23.7478 11.7265C23.7747 11.7713 23.789 11.8226 23.7891 11.8749V37.6014H11.6484V19.5842ZM20.8984 23.4374V25.7499C20.8984 25.9799 20.8071 26.2004 20.6444 26.3631C20.4818 26.5257 20.2612 26.6171 20.0312 26.6171C19.8013 26.6171 19.5807 26.5257 19.4181 26.3631C19.2554 26.2004 19.1641 25.9799 19.1641 25.7499V23.4374C19.1641 23.2074 19.2554 22.9868 19.4181 22.8242C19.5807 22.6616 19.8013 22.5702 20.0312 22.5702C20.2612 22.5702 20.4818 22.6616 20.6444 22.8242C20.8071 22.9868 20.8984 23.2074 20.8984 23.4374ZM16.2734 23.4374V25.7499C16.2734 25.9799 16.1821 26.2004 16.0194 26.3631C15.8568 26.5257 15.6362 26.6171 15.4062 26.6171C15.1763 26.6171 14.9557 26.5257 14.7931 26.3631C14.6304 26.2004 14.5391 25.9799 14.5391 25.7499V23.4374C14.5391 23.2074 14.6304 22.9868 14.7931 22.8242C14.9557 22.6616 15.1763 22.5702 15.4062 22.5702C15.6362 22.5702 15.8568 22.6616 16.0194 22.8242C16.1821 22.9868 16.2734 23.2074 16.2734 23.4374ZM16.2734 31.5311V33.8436C16.2734 34.0736 16.1821 34.2942 16.0194 34.4568C15.8568 34.6195 15.6362 34.7108 15.4062 34.7108C15.1763 34.7108 14.9557 34.6195 14.7931 34.4568C14.6304 34.2942 14.5391 34.0736 14.5391 33.8436V31.5311C14.5391 31.3011 14.6304 31.0806 14.7931 30.9179C14.9557 30.7553 15.1763 30.6639 15.4062 30.6639C15.6362 30.6639 15.8568 30.7553 16.0194 30.9179C16.1821 31.0806 16.2734 31.3011 16.2734 31.5311ZM20.8984 31.5311V33.8436C20.8984 34.0736 20.8071 34.2942 20.6444 34.4568C20.4818 34.6195 20.2612 34.7108 20.0312 34.7108C19.8013 34.7108 19.5807 34.6195 19.4181 34.4568C19.2554 34.2942 19.1641 34.0736 19.1641 33.8436V31.5311C19.1641 31.3011 19.2554 31.0806 19.4181 30.9179C19.5807 30.7553 19.8013 30.6639 20.0312 30.6639C20.2612 30.6639 20.4818 30.7553 20.6444 30.9179C20.8071 31.0806 20.8984 31.3011 20.8984 31.5311Z" fill="black"/>
</svg>
