<svg width="25" height="24" viewBox="0 0 25 24" fill="none" xmlns="http://www.w3.org/2000/svg">
<path fill-rule="evenodd" clip-rule="evenodd" d="M13.5 13H23.5V23H13.5V13Z" fill="#6784E6"/>
<path fill-rule="evenodd" clip-rule="evenodd" d="M1.5 1H11.5V11H1.5V1Z" fill="#FF9700"/>
<path fill-rule="evenodd" clip-rule="evenodd" d="M18.2516 1C21.1504 1 23.5003 3.34993 23.5003 6.24872C23.5003 9.1475 21.1504 11.4974 18.2516 11.4974C15.3528 11.4974 13.0029 9.1475 13.0029 6.24872C13.0029 3.34993 15.3528 1 18.2516 1Z" fill="#0132D5"/>
<path fill-rule="evenodd" clip-rule="evenodd" d="M6.75177 12.4966C9.65224 12.4966 12.0035 14.8479 12.0035 17.7484C12.0035 20.6488 9.65224 23.0001 6.75177 23.0001C3.8513 23.0001 1.5 20.6488 1.5 17.7484C1.5 14.8479 3.8513 12.4966 6.75177 12.4966Z" fill="#0132D5"/>
</svg>
