<svg width="61" height="60" viewBox="0 0 61 60" fill="none" xmlns="http://www.w3.org/2000/svg">
<rect width="60" height="60" transform="translate(0.666504)" fill="#0132D5"/>
<g clip-path="url(#clip0_1_900)">
<path d="M30.5 16.8223H17.6665V29.6557H30.5V16.8223Z" fill="white"/>
<path d="M43.333 31.9893H35.1665C33.8837 31.9893 32.833 33.0396 32.833 34.3224V42.4893C32.833 43.7724 33.8837 44.8224 35.1665 44.8224H43.333C44.6161 44.8224 45.6665 43.7724 45.6665 42.4893V34.3224C45.6665 33.0396 44.6161 31.9893 43.333 31.9893Z" fill="white"/>
<path d="M39.2499 16.8223C35.7065 16.8223 32.833 19.6958 32.833 23.2402C32.833 26.7822 35.7065 29.6557 39.2499 29.6557C42.793 29.6557 45.6665 26.7822 45.6665 23.2402C45.6665 19.6958 42.793 16.8223 39.2499 16.8223Z" fill="white"/>
<path d="M24.6665 31.9893L17.6665 44.8224H31.6665L24.6665 31.9893Z" fill="white"/>
</g>
<defs>
<clipPath id="clip0_1_900">
<rect width="28" height="28" fill="white" transform="translate(17.6665 16.8223)"/>
</clipPath>
</defs>
</svg>
