<svg width="60" height="60" viewBox="0 0 60 60" fill="none" xmlns="http://www.w3.org/2000/svg">
<rect width="60" height="60" fill="#0132D5"/>
<g clip-path="url(#clip0_1_919)">
<path d="M22.676 33.3623C23.1707 35.209 24.0149 37.2779 25.5611 38.6864C27.0954 38.2707 27.8465 37.7423 28.7318 36.9707C25.863 33.7526 25.43 28.8427 26.6671 24.829C27.3435 22.6296 28.7953 21.0271 29.7506 20.2267C29.8623 20.1331 30.0248 20.1331 30.1365 20.2267C30.8166 20.7961 33.0828 22.8958 33.627 26.0008C34.9789 26.2799 36.4885 26.7324 37.9988 27.4605C37.3277 20.1849 31.9791 16.5481 30.3878 15.6199C30.1138 15.46 29.7749 15.4616 29.5031 15.6253C27.8407 16.6266 22.0325 20.6954 22.0325 28.6666C22.0325 28.6666 22.0297 28.6682 22.0251 28.6708C22.0251 28.6751 22.0256 28.6794 22.0255 28.6838C22.0246 28.7216 21.989 30.8674 22.676 33.3623Z" fill="white"/>
<path d="M45.9879 41.8683C45.0649 36.1491 42.8004 32.5814 40.1217 30.3788C36.3121 27.3929 31.5325 26.6618 27.6088 27.1021C27.3901 28.2901 27.3277 29.5751 27.5406 30.9003C35.6477 30.7264 40.762 33.8819 42.1909 40.0011C42.2263 40.1524 42.1429 40.3061 41.9959 40.3568C41.2206 40.6243 38.6979 41.3079 34.9077 40.5071C33.9123 41.5838 32.6926 42.4411 31.4464 43.3171C38.9279 45.7983 43.8798 43.7384 45.5022 42.8583C45.8583 42.6652 46.0524 42.2682 45.9879 41.8683Z" fill="white"/>
<path d="M36.6756 34.7329C35.7503 34.0517 34.0522 33.2888 32.9667 32.9684C30.6518 40.8273 23.056 41.3069 18.2694 40.3274C18.0983 40.2924 17.9922 40.1191 18.0394 39.951C18.7183 37.5337 20.4676 35.4504 21.5492 34.3694C21.0895 33.0599 20.7105 30.9509 20.6858 29.8984C18.4795 31.5826 14.3074 35.3062 14.0011 41.7517C13.9822 42.1502 14.211 42.5189 14.5752 42.6814C17.7733 44.1074 22.5248 45.0713 27.5084 43.4229C31.6861 42.0411 34.7014 39.6441 36.6756 34.7329Z" fill="white"/>
</g>
<defs>
<clipPath id="clip0_1_919">
<rect width="32" height="32" fill="white" transform="translate(14 14)"/>
</clipPath>
</defs>
</svg>
