<svg width="61" height="60" viewBox="0 0 61 60" fill="none" xmlns="http://www.w3.org/2000/svg">
<rect width="60" height="60" transform="translate(0.333008)" fill="#0132D5"/>
<g clip-path="url(#clip0_1_929)">
<path d="M29.4841 23.9071C29.5181 23.8624 29.5517 23.8177 29.5848 23.7727C28.6939 22.4011 28.1436 21.0386 28.1436 20.1973C28.1436 18.4648 29.4472 17.6581 30.3283 17.6581C31.2105 17.6581 32.515 18.4651 32.515 20.1973C32.515 21.2293 31.6692 23.0596 30.4578 24.6494C29.6569 25.7005 28.8017 26.5845 28.1918 27.1692C28.7813 28.0772 29.3125 29.0166 29.7738 29.9657C30.6058 29.2238 31.7802 28.0652 32.9427 26.5395C34.1974 24.8931 35.6376 22.6841 35.6376 20.1976C35.6376 17.0757 33.256 14.5361 30.3287 14.5361C27.4026 14.5361 25.022 17.0757 25.022 20.1976C25.022 22.5449 26.2929 24.6124 27.4482 26.1783C28.2103 25.437 28.9283 24.6364 29.4841 23.9071Z" fill="white"/>
<path d="M20.5603 33.123H20.5613C21.7742 33.123 23.1102 32.8688 24.7514 32.3237C24.4018 31.6122 23.8745 30.6287 23.2216 29.6854C23.1895 29.6394 23.1571 29.5938 23.1245 29.5485C21.5751 29.9635 20.0689 30.071 19.2784 29.8139C17.632 29.2791 17.2665 27.79 17.5381 26.9519C17.7718 26.2326 18.5937 25.5049 19.7122 25.5049C20.0106 25.5049 20.3188 25.5561 20.6286 25.6564C21.6095 25.975 23.0898 27.3456 24.228 28.9894C24.8253 29.8528 25.4238 30.8896 25.9236 31.9233C26.9702 31.6432 28.0275 31.4283 29.0721 31.2826C28.4661 29.9029 27.662 28.4647 26.7928 27.2099C25.6145 25.5078 23.9587 23.4558 21.5939 22.6873C20.9863 22.4902 20.3638 22.3901 19.7432 22.3901C17.385 22.3901 15.2572 23.8692 14.5693 25.9873C14.1517 27.2734 14.2922 28.7334 14.9548 29.9933C15.6498 31.315 16.8427 32.3062 18.3131 32.7834C19.0078 33.008 19.764 33.123 20.5603 33.123Z" fill="white"/>
<path d="M29.7442 35.5482C29.8009 34.4709 29.9232 33.3987 30.1084 32.3557C28.999 32.4671 27.3678 32.7134 25.5307 33.265C23.5476 33.86 21.0838 34.8007 19.6226 36.8126C17.7881 39.3379 18.2222 42.7926 20.5905 44.5135C21.447 45.1351 22.4832 45.4643 23.5874 45.4643C25.4126 45.4643 27.0972 44.5851 28.2108 43.0523C29.5901 41.154 29.7775 38.7336 29.7633 36.7874C28.9789 36.9 27.8815 37.0972 26.7816 37.4274C26.7278 37.4439 26.6744 37.4604 26.621 37.4772C26.5352 39.1104 26.1801 40.5354 25.6848 41.2174C24.9694 42.2022 24.0834 42.3492 23.6185 42.3492C23.1766 42.3492 22.7419 42.2174 22.4253 41.9879C22.019 41.6927 21.7212 41.1831 21.6286 40.6241C21.5513 40.1557 21.5785 39.4322 22.1482 38.6478C22.7542 37.8132 24.5152 36.8301 26.4297 36.2558C27.6951 35.8748 28.9067 35.6622 29.7442 35.5482Z" fill="white"/>
<path d="M35.5567 33.3995C35.4214 34.1816 35.2702 35.2874 35.244 36.433C35.2427 36.4893 35.242 36.545 35.2417 36.6014C36.7687 37.1876 38.014 37.9661 38.5093 38.6472C39.5277 40.0483 38.9476 41.4671 38.2351 41.9854C37.9182 42.2156 37.4821 42.3473 37.0393 42.3473C36.5741 42.3473 35.6878 42.2007 34.9727 41.2166C34.3664 40.3814 33.975 38.4025 34.021 36.4052C34.0511 35.0851 34.223 33.8672 34.3732 33.0353C33.3632 32.6472 32.382 32.1995 31.45 31.7019C31.1295 33.1738 30.9343 34.8102 30.8997 36.3369C30.8524 38.4064 30.9861 41.0398 32.4477 43.0514C33.5606 44.5832 35.2456 45.4618 37.0697 45.4624C38.1755 45.4624 39.2127 45.1332 40.0703 44.5114C41.1644 43.7166 41.909 42.4528 42.1135 41.0434C42.3272 39.5659 41.9449 38.0629 41.0362 36.8124C39.6556 34.9132 37.4122 33.9873 35.5567 33.3995Z" fill="white"/>
<path d="M46.0883 25.9839C45.4004 23.8675 43.2736 22.3894 40.9156 22.3894C40.2948 22.3894 39.6716 22.4894 39.064 22.6866C36.8316 23.412 35.2577 25.2595 34.1257 26.8418C35.0648 27.3377 36.0479 27.7735 36.9142 28.0771C36.9676 28.0956 37.02 28.1137 37.0725 28.1312C38.1025 26.8599 39.2275 25.916 40.0287 25.6557C40.3391 25.5547 40.6476 25.5039 40.947 25.5039C42.0645 25.5039 42.8851 26.2306 43.1189 26.9486C43.3914 27.7877 43.0269 29.2784 41.3795 29.8135C41.0895 29.9077 40.713 29.9553 40.2604 29.9553C39.1883 29.9553 37.8216 29.6921 36.5099 29.2321C35.2626 28.7957 34.1577 28.2555 33.4132 27.856C32.7324 28.6967 32.0037 29.4921 31.2427 30.225C32.2054 30.7873 33.6696 31.546 35.4801 32.1799C36.6361 32.5845 38.3725 33.1232 40.0944 33.1235C40.8923 33.1235 41.6495 33.0089 42.3445 32.7826C45.3127 31.818 46.9928 28.7686 46.0883 25.9839Z" fill="white"/>
</g>
<defs>
<clipPath id="clip0_1_929">
<rect width="32" height="31.9997" fill="white" transform="translate(14.333 14)"/>
</clipPath>
</defs>
</svg>
