<svg width="144" height="40" viewBox="0 0 144 40" fill="none" xmlns="http://www.w3.org/2000/svg">
<path d="M14.6565 1.12033H14.3402C6.01021 3.43925 0 11.0284 0 19.9879C0 28.9474 6.11565 36.5365 14.3402 38.7501H14.551C14.7619 38.7501 15.0782 38.8555 15.2891 38.9609L16.5544 39.2771V0.698708H16.3436C15.7109 0.804113 15.1837 0.909518 14.551 1.12033H14.6565ZM6.01021 19.9879C6.01021 14.4014 9.38436 9.55276 14.2347 7.55006V32.4257C9.38436 30.423 6.01021 25.5744 6.01021 19.9879Z" fill="#0233D5"/>
<path d="M19.507 0.5C19.0853 0.5 18.7689 0.5 18.3472 0.5V39.5H18.7689C18.9798 39.5 19.1907 39.5 19.507 39.5C19.8234 39.5 19.9288 39.5 20.1397 39.5H20.5615V6.61351C27.5206 7.14054 32.8982 12.9378 32.8982 20C32.8982 23.7946 31.3166 27.273 28.6805 29.6973V15.9946L26.4662 13.7811V31.3838C25.939 31.7 25.3064 32.0162 24.6737 32.3324V11.2514L22.4594 9.03784V38.0243V39.2892C31.8438 37.9189 39.0139 29.8027 39.0139 20C39.0139 9.24865 30.2621 0.5 19.507 0.5Z" fill="#0233D5"/>
<path d="M139.784 39.5C137.822 39.5 136.601 38.3092 136.313 37.1184L137.699 36.7682C137.85 37.3986 138.604 38.0571 139.784 38.0571C140.662 38.0571 141.581 37.6088 141.581 36.6141C141.581 35.8576 141.032 35.5774 139.825 35.1011C138.673 34.6388 136.875 33.9803 136.875 32.1031C136.875 31.3886 137.15 30.7162 137.671 30.2258C138.22 29.7075 138.92 29.4693 139.756 29.4693C140.991 29.4693 142.13 30.2118 142.61 31.3326L141.293 31.907C141.087 31.4166 140.525 30.8983 139.743 30.8983C138.947 30.8983 138.302 31.3046 138.302 32.1031C138.302 32.9296 139.153 33.2659 140.346 33.7422C141.471 34.1905 143.008 34.6808 143.008 36.6141C143.008 38.2952 141.636 39.5 139.784 39.5Z" fill="#191F6D"/>
<path d="M128.248 39.3818V29.5753H133.872V31.0323H129.674V33.638H133.543V35.095H129.674V37.9249H133.982V39.3818H128.248Z" fill="#191F6D"/>
<path d="M120.919 39.4939C118.696 39.4939 116.885 38.2331 116.885 35.3612V29.5753H118.312V35.3612C118.312 37.1544 119.396 38.0369 120.919 38.0369C122.455 38.0369 123.525 37.1544 123.525 35.3612V29.5753H124.952V35.3612C124.952 38.2331 123.141 39.4939 120.919 39.4939Z" fill="#191F6D"/>
<path d="M109.227 39.5C106.525 39.5 104.316 37.2445 104.316 34.4847C104.316 31.7108 106.525 29.4693 109.227 29.4693C111.944 29.4693 114.139 31.7108 114.139 34.4847C114.139 35.6474 113.754 36.7262 113.082 37.5807L114.825 39.3879H112.931L112.122 38.5334C111.299 39.1358 110.311 39.5 109.227 39.5ZM105.743 34.4847C105.743 36.432 107.307 38.043 109.227 38.043C109.913 38.043 110.558 37.8329 111.107 37.4827L108.596 34.8769H110.489L112.081 36.53C112.479 35.9557 112.712 35.2412 112.712 34.4847C112.712 32.5234 111.148 30.9263 109.227 30.9263C107.307 30.9263 105.743 32.5234 105.743 34.4847Z" fill="#191F6D"/>
<path d="M100.148 39.3818V29.5753H101.575V39.3818H100.148Z" fill="#191F6D"/>
<path d="M87.8608 39.3818V29.5753H89.6168L95.2964 37.4065V29.5753H96.7232V39.3818H94.9672L89.2876 31.5366V39.3818H87.8608Z" fill="#191F6D"/>
<path d="M76.1221 39.3818V29.5753H77.5488V33.638H83.0089V29.5753H84.4357V39.3818H83.0089V35.095H77.5488V39.3818H76.1221Z" fill="#191F6D"/>
<path d="M69.3659 39.5C66.6633 39.5 64.4546 37.2445 64.4546 34.4847C64.4546 31.7108 66.6633 29.4693 69.3659 29.4693C71.1082 29.4693 72.6447 30.408 73.5227 31.8089L72.3292 32.6214C71.7118 31.5988 70.6143 30.9263 69.3659 30.9263C67.4453 30.9263 65.8813 32.5234 65.8813 34.4847C65.8813 36.432 67.4453 38.043 69.3659 38.043C70.6143 38.043 71.7118 37.3566 72.3292 36.3339L73.5227 37.1464C72.6447 38.5474 71.1082 39.5 69.3659 39.5Z" fill="#191F6D"/>
<path d="M56.2495 39.3818V29.5753H61.8742V31.0323H57.6763V33.638H61.545V35.095H57.6763V37.9249H61.984V39.3818H56.2495Z" fill="#191F6D"/>
<path d="M49.1327 39.3818V31.0323H46.3203V29.5753H53.3718V31.0323H50.5594V39.3818H49.1327Z" fill="#191F6D"/>
<path d="M127.713 8.43927H131.63L135.626 16.7411L139.602 8.43927H143.52V22.5303H140.331L140.311 13.5048L136.787 21.1232H134.465L130.921 13.5048V22.5303H127.713V8.43927Z" fill="#191F6D"/>
<path d="M116.336 16.721C116.336 17.6323 116.592 18.3559 117.103 18.8919C117.628 19.428 118.278 19.696 119.052 19.696C119.826 19.696 120.45 19.4347 120.922 18.912C121.408 18.376 121.65 17.6457 121.65 16.721V8.43927H125.253V16.721C125.253 17.9539 124.997 19.0259 124.485 19.9372C123.986 20.8485 123.271 21.552 122.339 22.0478C121.408 22.5437 120.305 22.7916 119.032 22.7916C117.759 22.7916 116.651 22.5437 115.706 22.0478C114.761 21.552 114.026 20.8485 113.501 19.9372C112.989 19.0259 112.733 17.9539 112.733 16.721V8.43927H116.336V16.721Z" fill="#191F6D"/>
<path d="M94.4766 8.43927H98.3938L102.39 16.7411L106.366 8.43927H110.283V22.5303H107.094L107.075 13.5048L103.551 21.1232H101.228L97.6851 13.5048V22.5303H94.4766V8.43927Z" fill="#191F6D"/>
<path d="M88.1899 8.43927H91.7922V22.5303H88.1899V8.43927Z" fill="#191F6D"/>
<path d="M74.8994 8.43927H86.7298V11.4143H82.596V22.5303H78.9938V11.4143H74.8994V8.43927Z" fill="#191F6D"/>
<path d="M68.7825 8.43927C70.541 8.43927 71.9058 8.8748 72.8769 9.74586C73.848 10.6035 74.3336 11.8163 74.3336 13.3842C74.3336 15.0325 73.848 16.319 72.8769 17.2436C71.9058 18.1549 70.541 18.6105 68.7825 18.6105H64.7472L66.322 17.0024V22.5303H62.7197V8.43927H68.7825ZM68.6054 15.7159C69.3403 15.7159 69.9046 15.5283 70.2983 15.1531C70.7051 14.7779 70.9085 14.2217 70.9085 13.4847C70.9085 12.7745 70.7051 12.2384 70.2983 11.8766C69.9046 11.5148 69.3403 11.3339 68.6054 11.3339H64.7472L66.322 9.72576V17.324L64.7472 15.7159H68.6054Z" fill="#191F6D"/>
<path d="M53.4741 8.22732C54.5502 8.22732 55.5344 8.40823 56.4268 8.77005C57.3323 9.13187 58.1196 9.64111 58.7889 10.2977C59.4713 10.9544 59.9962 11.7249 60.3637 12.6094C60.7442 13.4805 60.9345 14.4319 60.9345 15.4638C60.9345 16.509 60.7442 17.4806 60.3637 18.3785C59.9962 19.2629 59.4713 20.0402 58.7889 20.7102C58.1196 21.3669 57.3323 21.8828 56.4268 22.258C55.5344 22.6198 54.5502 22.8007 53.4741 22.8007C52.4111 22.8007 51.4269 22.6198 50.5214 22.258C49.6159 21.8828 48.822 21.3669 48.1396 20.7102C47.4703 20.0402 46.9454 19.2629 46.5648 18.3785C46.1974 17.4806 46.0137 16.509 46.0137 15.4638C46.0137 14.4319 46.1974 13.4738 46.5648 12.5893C46.9454 11.7048 47.4703 10.941 48.1396 10.2977C48.822 9.64111 49.6159 9.13187 50.5214 8.77005C51.4269 8.40823 52.4111 8.22732 53.4741 8.22732ZM53.5135 11.3028C53.0017 11.3028 52.5096 11.41 52.0371 11.6244C51.5778 11.8254 51.171 12.1203 50.8167 12.5089C50.4755 12.8841 50.2065 13.3263 50.0096 13.8356C49.8128 14.3314 49.7144 14.8808 49.7144 15.4839C49.7144 16.0735 49.8128 16.6297 50.0096 17.1523C50.2065 17.6615 50.482 18.1104 50.8364 18.4991C51.1907 18.8743 51.5975 19.1691 52.0568 19.3835C52.5161 19.5979 53.0017 19.7051 53.5135 19.7051C54.0253 19.7051 54.5042 19.5979 54.9504 19.3835C55.4097 19.1691 55.81 18.8743 56.1512 18.4991C56.4924 18.1104 56.7548 17.6615 56.9386 17.1523C57.1354 16.6297 57.2338 16.0735 57.2338 15.4839C57.2338 14.8808 57.1354 14.3314 56.9386 13.8356C56.7548 13.3263 56.4924 12.8841 56.1512 12.5089C55.81 12.1203 55.4097 11.8254 54.9504 11.6244C54.5042 11.41 54.0253 11.3028 53.5135 11.3028Z" fill="#191F6D"/>
</svg>
