<svg width="144" height="39" viewBox="0 0 144 39" fill="none" xmlns="http://www.w3.org/2000/svg">
<path d="M14.6565 0.620352H14.3402C6.01021 2.93927 0 10.5285 0 19.4879C0 28.4474 6.11565 36.0366 14.3402 38.2501H14.551C14.7619 38.2501 15.0782 38.3555 15.2891 38.4609L16.5544 38.7771V0.19873H16.3436C15.7109 0.304136 15.1837 0.409541 14.551 0.620352H14.6565ZM6.01021 19.4879C6.01021 13.9014 9.38436 9.05278 14.2347 7.05008V31.9258C9.38436 29.9231 6.01021 25.0744 6.01021 19.4879Z" fill="white"/>
<path d="M19.507 0C19.0853 0 18.7689 0 18.3472 0V39H18.7689C18.9798 39 19.1907 39 19.507 39C19.8234 39 19.9288 39 20.1397 39H20.5615V6.11351C27.5206 6.64054 32.8982 12.4378 32.8982 19.5C32.8982 23.2946 31.3166 26.773 28.6805 29.1973V15.4946L26.4662 13.2811V30.8838C25.939 31.2 25.3064 31.5162 24.6737 31.8324V10.7514L22.4594 8.53784V37.5243V38.7892C31.8438 37.4189 39.0139 29.3027 39.0139 19.5C39.0139 8.74865 30.2621 0 19.507 0Z" fill="white"/>
<path d="M139.784 39.0004C137.822 39.0004 136.601 37.8096 136.313 36.6188L137.699 36.2686C137.85 36.899 138.604 37.5574 139.784 37.5574C140.662 37.5574 141.581 37.1091 141.581 36.1145C141.581 35.358 141.032 35.0778 139.825 34.6015C138.673 34.1392 136.875 33.4807 136.875 31.6035C136.875 30.889 137.15 30.2166 137.671 29.7262C138.22 29.2079 138.92 28.9697 139.756 28.9697C140.991 28.9697 142.13 29.7122 142.61 30.833L141.293 31.4073C141.087 30.917 140.525 30.3987 139.743 30.3987C138.947 30.3987 138.302 30.8049 138.302 31.6035C138.302 32.43 139.153 32.7663 140.346 33.2426C141.471 33.6909 143.008 34.1812 143.008 36.1145C143.008 37.7956 141.636 39.0004 139.784 39.0004Z" fill="white"/>
<path d="M128.248 38.8822V29.0757H133.872V30.5327H129.674V33.1384H133.543V34.5954H129.674V37.4252H133.982V38.8822H128.248Z" fill="white"/>
<path d="M120.919 38.9943C118.696 38.9943 116.885 37.7334 116.885 34.8615V29.0757H118.312V34.8615C118.312 36.6547 119.396 37.5373 120.919 37.5373C122.455 37.5373 123.525 36.6547 123.525 34.8615V29.0757H124.952V34.8615C124.952 37.7334 123.141 38.9943 120.919 38.9943Z" fill="white"/>
<path d="M109.227 39.0004C106.525 39.0004 104.316 36.7449 104.316 33.9851C104.316 31.2112 106.525 28.9697 109.227 28.9697C111.944 28.9697 114.139 31.2112 114.139 33.9851C114.139 35.1478 113.754 36.2266 113.082 37.0811L114.825 38.8883H112.931L112.122 38.0338C111.299 38.6362 110.311 39.0004 109.227 39.0004ZM105.743 33.9851C105.743 35.9324 107.307 37.5434 109.227 37.5434C109.913 37.5434 110.558 37.3333 111.107 36.9831L108.596 34.3773H110.489L112.081 36.0304C112.479 35.456 112.712 34.7416 112.712 33.9851C112.712 32.0238 111.148 30.4267 109.227 30.4267C107.307 30.4267 105.743 32.0238 105.743 33.9851Z" fill="white"/>
<path d="M100.148 38.8822V29.0757H101.575V38.8822H100.148Z" fill="white"/>
<path d="M87.8608 38.8822V29.0757H89.6168L95.2964 36.9069V29.0757H96.7232V38.8822H94.9672L89.2876 31.037V38.8822H87.8608Z" fill="white"/>
<path d="M76.1221 38.8822V29.0757H77.5488V33.1384H83.0089V29.0757H84.4357V38.8822H83.0089V34.5954H77.5488V38.8822H76.1221Z" fill="white"/>
<path d="M69.3659 39.0004C66.6633 39.0004 64.4546 36.7449 64.4546 33.9851C64.4546 31.2112 66.6633 28.9697 69.3659 28.9697C71.1082 28.9697 72.6447 29.9084 73.5227 31.3093L72.3292 32.1218C71.7118 31.0991 70.6143 30.4267 69.3659 30.4267C67.4453 30.4267 65.8813 32.0238 65.8813 33.9851C65.8813 35.9324 67.4453 37.5434 69.3659 37.5434C70.6143 37.5434 71.7118 36.857 72.3292 35.8343L73.5227 36.6468C72.6447 38.0478 71.1082 39.0004 69.3659 39.0004Z" fill="white"/>
<path d="M56.2495 38.8822V29.0757H61.8742V30.5327H57.6763V33.1384H61.545V34.5954H57.6763V37.4252H61.984V38.8822H56.2495Z" fill="white"/>
<path d="M49.1327 38.8822V30.5327H46.3203V29.0757H53.3718V30.5327H50.5594V38.8822H49.1327Z" fill="white"/>
<path d="M127.713 7.93945H131.63L135.626 16.2413L139.602 7.93945H143.52V22.0305H140.331L140.311 13.005L136.787 20.6234H134.465L130.921 13.005V22.0305H127.713V7.93945Z" fill="white"/>
<path d="M116.336 16.2212C116.336 17.1324 116.592 17.8561 117.103 18.3921C117.628 18.9282 118.278 19.1962 119.052 19.1962C119.826 19.1962 120.45 18.9349 120.922 18.4122C121.408 17.8762 121.65 17.1458 121.65 16.2212V7.93945H125.253V16.2212C125.253 17.4541 124.997 18.5261 124.485 19.4374C123.986 20.3486 123.271 21.0522 122.339 21.548C121.408 22.0439 120.305 22.2918 119.032 22.2918C117.759 22.2918 116.651 22.0439 115.706 21.548C114.761 21.0522 114.026 20.3486 113.501 19.4374C112.989 18.5261 112.733 17.4541 112.733 16.2212V7.93945H116.336V16.2212Z" fill="white"/>
<path d="M94.4766 7.93945H98.3938L102.39 16.2413L106.366 7.93945H110.283V22.0305H107.094L107.075 13.005L103.551 20.6234H101.228L97.6851 13.005V22.0305H94.4766V7.93945Z" fill="white"/>
<path d="M88.1899 7.93945H91.7922V22.0305H88.1899V7.93945Z" fill="white"/>
<path d="M74.8994 7.93945H86.7298V10.9144H82.596V22.0305H78.9938V10.9144H74.8994V7.93945Z" fill="white"/>
<path d="M68.7825 7.93945C70.541 7.93945 71.9058 8.37498 72.8769 9.24604C73.848 10.1037 74.3336 11.3165 74.3336 12.8844C74.3336 14.5327 73.848 15.8192 72.8769 16.7438C71.9058 17.6551 70.541 18.1107 68.7825 18.1107H64.7472L66.322 16.5026V22.0305H62.7197V7.93945H68.7825ZM68.6054 15.2161C69.3403 15.2161 69.9046 15.0285 70.2983 14.6533C70.7051 14.2781 70.9085 13.7219 70.9085 12.9849C70.9085 12.2746 70.7051 11.7386 70.2983 11.3768C69.9046 11.0149 69.3403 10.834 68.6054 10.834H64.7472L66.322 9.22594V16.8242L64.7472 15.2161H68.6054Z" fill="white"/>
<path d="M53.4741 7.72754C54.5502 7.72754 55.5344 7.90845 56.4268 8.27027C57.3323 8.6321 58.1196 9.14133 58.7889 9.79797C59.4713 10.4546 59.9962 11.2252 60.3637 12.1096C60.7442 12.9807 60.9345 13.9321 60.9345 14.964C60.9345 16.0093 60.7442 16.9808 60.3637 17.8787C59.9962 18.7631 59.4713 19.5404 58.7889 20.2104C58.1196 20.8671 57.3323 21.383 56.4268 21.7582C55.5344 22.1201 54.5502 22.301 53.4741 22.301C52.4111 22.301 51.4269 22.1201 50.5214 21.7582C49.6159 21.383 48.822 20.8671 48.1396 20.2104C47.4703 19.5404 46.9454 18.7631 46.5648 17.8787C46.1974 16.9808 46.0137 16.0093 46.0137 14.964C46.0137 13.9321 46.1974 12.974 46.5648 12.0895C46.9454 11.2051 47.4703 10.4412 48.1396 9.79797C48.822 9.14133 49.6159 8.6321 50.5214 8.27027C51.4269 7.90845 52.4111 7.72754 53.4741 7.72754ZM53.5135 10.803C53.0017 10.803 52.5096 10.9102 52.0371 11.1247C51.5778 11.3257 51.171 11.6205 50.8167 12.0091C50.4755 12.3843 50.2065 12.8266 50.0096 13.3358C49.8128 13.8316 49.7144 14.3811 49.7144 14.9841C49.7144 15.5737 49.8128 16.1299 50.0096 16.6525C50.2065 17.1617 50.482 17.6107 50.8364 17.9993C51.1907 18.3745 51.5975 18.6693 52.0568 18.8837C52.5161 19.0982 53.0017 19.2054 53.5135 19.2054C54.0253 19.2054 54.5042 19.0982 54.9504 18.8837C55.4097 18.6693 55.81 18.3745 56.1512 17.9993C56.4924 17.6107 56.7548 17.1617 56.9386 16.6525C57.1354 16.1299 57.2338 15.5737 57.2338 14.9841C57.2338 14.3811 57.1354 13.8316 56.9386 13.3358C56.7548 12.8266 56.4924 12.3843 56.1512 12.0091C55.81 11.6205 55.4097 11.3257 54.9504 11.1247C54.5042 10.9102 54.0253 10.803 53.5135 10.803Z" fill="white"/>
</svg>
