<svg width="24" height="24" viewBox="0 0 24 24" fill="none" xmlns="http://www.w3.org/2000/svg">
<path fill-rule="evenodd" clip-rule="evenodd" d="M13.666 1.05736L14.0008 0.938965L13.9995 6.62199L15.9999 8.30823L17.9996 6.62195V0.939141L18.3332 1.05709C19.3083 1.40184 20.2044 1.96173 20.9497 2.70705C22.2625 4.0198 23 5.80028 23 7.6568C23 9.51331 22.2625 11.2938 20.9497 12.6065C20.5134 13.0429 20.0253 13.4157 19.5 13.719V22.9999H12.5V13.719C11.9747 13.4157 11.4866 13.0429 11.0503 12.6065C9.7375 11.2938 9 9.51331 9 7.6568C9 5.80028 9.7375 4.0198 11.0503 2.70705C11.7954 1.96192 12.6912 1.40212 13.666 1.05736ZM2.21939 1H6.78094L8.10751 6.30695L5.5 8.91292V13.9761H3.5V8.91551L0.892578 6.30655L2.21939 1Z" fill="#0132D5"/>
<path fill-rule="evenodd" clip-rule="evenodd" d="M8.00017 12.9761H1.00008L1 22.9972H8.00006L8.00017 12.9761Z" fill="#FF9700"/>
</svg>
