<svg width="24" height="24" viewBox="0 0 24 24" fill="none" xmlns="http://www.w3.org/2000/svg">
<path d="M1 3H23V14H1V3Z" fill="white"/>
<path fill-rule="evenodd" clip-rule="evenodd" d="M3.25 4V1H5.75V4H3.25Z" fill="#6784E6"/>
<path fill-rule="evenodd" clip-rule="evenodd" d="M3.25 23V13H5.75V23H3.25Z" fill="#FF9700"/>
<path fill-rule="evenodd" clip-rule="evenodd" d="M18.25 4V1H20.75V4H18.25Z" fill="#6784E6"/>
<path fill-rule="evenodd" clip-rule="evenodd" d="M18.25 23V13H20.75V23H18.25Z" fill="#FF9700"/>
<path fill-rule="evenodd" clip-rule="evenodd" d="M23 4.33566V3H18.6642L7.66421 14H13.3357L23 4.33566ZM16.1641 14H23V7.16409L16.1641 14ZM2 3H7.33548L1 9.33548V3H2ZM1 13V12.1639L10.1639 3H15.8358L4.83579 14H1V13Z" fill="#0132D5"/>
</svg>
